HIERARCHY
ROOT root
{
	OFFSET	0	13.1	24.9
	CHANNELS 6  Xposition Yposition Zposition Xrotation Yrotation Zrotation
	JOINT spine_1
	{
		OFFSET	0	9.99999	0
		CHANNELS 3  Xrotation Yrotation Zrotation
		JOINT spine_2
		{
			OFFSET	0	112	-10
			CHANNELS 3  Xrotation Yrotation Zrotation
			JOINT spine_3
			{
				OFFSET	0	206.5	19.3
				CHANNELS 3  Xrotation Yrotation Zrotation
				JOINT spine_4
				{
					OFFSET	0	110.4	14.6
					CHANNELS 3  Xrotation Yrotation Zrotation
					JOINT neck_1
					{
						OFFSET	0	71.8	-50.3
						CHANNELS 3  Xrotation Yrotation Zrotation
						JOINT neck_2
						{
							OFFSET	0	86.2	-25.8
							CHANNELS 3  Xrotation Yrotation Zrotation
							JOINT head_ee
							{
								OFFSET	0	179.8	-8.7
								CHANNELS 3  Xrotation Yrotation Zrotation
								End Site
								{
									OFFSET	1	0	0
								}
							}
						}
					}
					JOINT left_clavicle
					{
						OFFSET	-43.2	22.4	-70.8
						CHANNELS 3  Xrotation Yrotation Zrotation
						JOINT left_shoulder
						{
							OFFSET	-93.9	-5.79999	48.7
							CHANNELS 3  Xrotation Yrotation Zrotation
							JOINT left_elbow
							{
								OFFSET	-291.4	-30.8	15.2
								CHANNELS 3  Xrotation Yrotation Zrotation
								JOINT left_lowarm_twist
								{
									OFFSET	-110.7	-3.89999	13.6
									CHANNELS 3  Xrotation Yrotation Zrotation
									JOINT left_hand
									{
										OFFSET	-110.7	-3.89999	13.6
										CHANNELS 3  Xrotation Yrotation Zrotation
										JOINT left_ee
										{
											OFFSET	-80.8	-5.10001	12.1
											CHANNELS 3  Xrotation Yrotation Zrotation
											End Site
											{
												OFFSET	1	0	0
											}
										}
									}
								}
							}
						}
					}
					JOINT right_clavicle
					{
						OFFSET	43.2	22.4	-70.8
						CHANNELS 3  Xrotation Yrotation Zrotation
						JOINT right_shoulder
						{
							OFFSET	93.9	-5.79999	48.7
							CHANNELS 3  Xrotation Yrotation Zrotation
							JOINT right_elbow
							{
								OFFSET	291.4	-30.8	15.2
								CHANNELS 3  Xrotation Yrotation Zrotation
								JOINT right_lowarm_twist
								{
									OFFSET	110.7	-3.89999	13.6
									CHANNELS 3  Xrotation Yrotation Zrotation
									JOINT right_hand
									{
										OFFSET	110.7	-3.89999	13.6
										CHANNELS 3  Xrotation Yrotation Zrotation
										JOINT right_ee
										{
											OFFSET	80.8	-5.10001	12.1
											CHANNELS 3  Xrotation Yrotation Zrotation
											End Site
											{
												OFFSET	1	0	0
											}
										}
									}
								}
							}
						}
					}
				}
			}
		}
	}
	JOINT left_hip
	{
		OFFSET	-82.8	-127.5	0.300001
		CHANNELS 3  Xrotation Yrotation Zrotation
		JOINT left_knee
		{
			OFFSET	-28.2	-396.7	2.2
			CHANNELS 3  Xrotation Yrotation Zrotation
			JOINT left_ankle
			{
				OFFSET	-11.7	-411.3	35.4
				CHANNELS 3  Xrotation Yrotation Zrotation
				JOINT left_toes
				{
					OFFSET	0	-60	-88.6
					CHANNELS 3  Xrotation Yrotation Zrotation
					JOINT left_foot_ee
					{
						OFFSET	-22.5	-16.5	-42.2
						CHANNELS 3  Xrotation Yrotation Zrotation
						End Site
						{
							OFFSET	1	0	0
						}
					}
				}
			}
		}
	}
	JOINT right_hip
	{
		OFFSET	82.8	-127.5	0.300001
		CHANNELS 3  Xrotation Yrotation Zrotation
		JOINT right_knee
		{
			OFFSET	28.2	-396.7	2.2
			CHANNELS 3  Xrotation Yrotation Zrotation
			JOINT right_ankle
			{
				OFFSET	11.7	-411.3	35.4
				CHANNELS 3  Xrotation Yrotation Zrotation
				JOINT right_toes
				{
					OFFSET	0	-60	-88.6
					CHANNELS 3  Xrotation Yrotation Zrotation
					JOINT right_foot_ee
					{
						OFFSET	22.5	-16.5	-42.2
						CHANNELS 3  Xrotation Yrotation Zrotation
						End Site
						{
							OFFSET	1	0	0
						}
					}
				}
			}
		}
	}
}
MOTION
Frames: 12
Frame Time: 0.02
2454.77 768.059 -1520.54 7.89461 57.9092 -8.43329 -2.90333 0.495568 2.34741 -2.90033 0.345235 2.37417 -2.88176 -0.281669 2.38254 -2.88967 0.0980323 2.39712 1.99582 18.7511 -2.21308 3.35153 34.8869 -1.30186 -0.0 0.0 -0.0 3.69045 14.6609 7.68505 -28.3346 -11.795 66.258 0.811149 -21.8911 0.156874 -37.6237 -2.70206 3.88482 1.55082 14.8474 15.9204 -0.0 0.0 -0.0 12.352 21.8045 -24.6036 -2.31095 41.4144 -52.6978 2.17192 47.088 -0.946452 3.31137 -0.104845 0.409902 -0.20037 15.956 8.1456 0.0 0.0 0.0 1.01782 30.3297 -6.26195 -4.4143 0.156414 0.659239 10.6272 10.7234 -1.50915 -10.8166 0.0 0.0 -0.0 0.0 -0.0 4.6628 30.4042 -6.69899 -3.78374 -0.13719 -0.564376 0.988242 16.5892 0.15914 -28.6879 0.0 0.0 0.0 0.0 0.0 
2447.96 764.987 -1517.72 7.06731 57.5625 -7.31001 -2.65919 0.462025 2.11044 -2.65677 0.326827 2.13555 -2.64129 -0.228584 2.14828 -2.64771 0.113484 2.15742 2.20117 18.7656 -2.174 3.57954 34.8349 -1.3163 -0.0 0.0 -0.0 3.67131 15.1947 7.66561 -28.127 -12.0165 66.1063 0.810758 -21.8815 0.156728 -38.1547 -2.75708 3.925 1.53553 14.9653 15.8608 -0.0 0.0 -0.0 12.1533 22.6702 -24.071 -2.47507 41.1479 -52.5768 2.12371 46.4465 -0.911328 3.7294 -0.11639 0.462053 -0.252546 16.6845 8.80641 0.0 0.0 0.0 0.707791 30.3285 -5.77694 -2.09756 0.0806646 0.311779 9.62239 9.87049 -1.37031 -10.9949 0.0 0.0 -0.0 0.0 -0.0 5.15496 30.9782 -6.13318 -3.7963 -0.137584 -0.566264 3.5321 17.6602 0.569483 -28.7771 0.0 0.0 0.0 0.0 0.0 
2436.08 763.698 -1514.39 7.2637 57.0456 -7.62122 -2.59074 0.44781 1.98219 -2.58861 0.320796 2.00666 -2.57448 -0.199176 2.02235 -2.58016 0.122648 2.02842 2.27833 18.7822 -2.10787 3.66067 34.7924 -1.26218 -0.0 0.0 -0.0 3.65938 15.5679 7.65425 -27.9821 -12.172 66.007 0.810493 -21.8751 0.15663 -38.5213 -2.7953 3.95245 1.52835 15.0311 15.8363 -0.0 0.0 -0.0 12.0106 23.2774 -23.6876 -3.04468 40.8547 -52.4408 2.09064 45.9975 -0.88745 4.00705 -0.123847 0.496735 -0.288141 17.1801 9.2561 0.0 0.0 0.0 0.507101 30.1966 -5.427 -0.885793 0.0354585 0.13131 8.78373 9.2164 -1.25398 -11.1423 0.0 0.0 -0.0 0.0 -0.0 5.25371 31.3923 -5.62782 -3.92916 -0.141716 -0.586235 5.33829 18.3874 0.860933 -28.8387 0.0 0.0 0.0 0.0 0.0 
2426.47 766.658 -1511.47 8.0847 55.7205 -8.96903 -2.56978 0.514402 1.86019 -2.56794 0.395013 1.88914 -2.55225 -0.0967527 1.92755 -2.55738 0.208825 1.91865 2.59492 19.0634 -2.10837 4.06125 35.218 -1.35286 -0.0 0.0 -0.0 3.6227 16.596 7.61646 -27.7734 -12.3362 66.2654 0.80044 -21.6289 0.152904 -39.0137 -2.84689 3.98893 1.6052 15.1714 16.3815 -0.0 0.0 -0.0 11.9273 23.7731 -23.4494 -4.71403 40.6535 -52.1701 2.06089 45.5873 -0.866128 3.37752 -0.106697 0.418149 -0.184494 17.983 8.89504 0.0 0.0 0.0 0.383568 29.2649 -5.45423 -5.09566 0.176009 0.761969 6.33875 8.24439 -0.911802 -10.6561 0.0 0.0 -0.0 0.0 -0.0 2.66082 31.9698 -3.44667 -4.9148 -0.170927 -0.734678 8.44733 18.4373 1.34762 -28.8733 0.0 0.0 0.0 0.0 0.0 
2415.57 765.919 -1509.72 7.88172 54.6996 -8.41882 -2.4606 0.551748 1.73747 -2.45903 0.440088 1.76904 -2.44308 -0.0192027 1.82284 -2.44762 0.268875 1.80301 1.99595 19.6134 -2.03909 3.46828 36.274 -1.09375 -0.0 0.0 -0.0 3.45576 17.2159 7.36766 -27.1689 -12.2545 66.4086 0.850642 -22.8495 0.171905 -39.082 -2.85407 3.99395 1.59644 15.1652 16.3226 -0.0 0.0 -0.0 11.9422 24.1611 -23.4451 -5.99212 40.5172 -52.1756 2.02513 45.086 -0.84069 2.70037 -0.0872862 0.33383 -0.111564 18.4627 8.60654 0.0 0.0 0.0 0.198886 28.7459 -5.141 -11.2112 0.296843 1.6922 3.76322 8.58631 -0.545413 -9.03193 0.0 0.0 -0.0 0.0 -0.0 0.773317 32.2431 -2.73052 -4.6339 -0.162862 -0.692324 10.8653 16.7451 1.69282 -28.8324 0.0 0.0 0.0 0.0 0.0 
2407.83 759.039 -1500.23 8.41212 53.5929 -9.19557 -2.64902 0.593143 1.76795 -2.64741 0.479461 1.80209 -2.62976 0.0045289 1.86476 -2.63449 0.298925 1.84066 0.0370154 20.6012 -0.916551 1.25958 37.598 0.82097 -0.0 0.0 -0.0 3.27348 17.6168 7.0944 -26.1942 -12.1973 66.2355 0.886125 -23.6993 0.185926 -39.1102 -2.85703 3.99602 1.60795 14.7866 16.2714 -0.0 0.0 -0.0 11.9404 24.438 -23.413 -6.73892 40.7608 -52.2202 1.97746 44.404 -0.807136 1.93428 -0.064125 0.238717 -0.0595027 17.9229 8.0284 0.0 0.0 0.0 0.404697 28.2953 -5.14619 -14.4269 0.320386 2.18497 1.86393 9.0952 -0.27154 -8.50178 0.0 0.0 -0.0 0.0 -0.0 -0.426545 32.2934 -1.0615 -4.11301 -0.147359 -0.613887 12.5768 13.3419 1.89759 -28.6131 0.0 0.0 0.0 0.0 0.0 
2407.76 768.934 -1499.54 9.51104 52.1333 -10.5546 -2.74025 0.553762 1.95028 -2.73823 0.428564 1.98155 -2.72036 -0.093654 2.02518 -2.72601 0.227294 2.01457 -1.35975 21.2598 -0.110238 -0.340755 38.4938 2.21766 -0.0 0.0 -0.0 3.23361 17.7552 7.0365 -24.2873 -12.2515 65.666 0.931325 -24.7659 0.204479 -39.0091 -2.8464 3.98858 1.61477 14.4643 16.2081 -0.0 0.0 -0.0 11.8537 24.5938 -23.1987 -7.91185 40.7307 -52.0758 1.90641 43.3569 -0.757881 1.39779 -0.0471485 0.172295 -0.0224533 17.3591 7.54033 0.0 0.0 0.0 0.542216 28.0306 -4.80608 -16.5918 0.320647 2.51711 0.560321 9.44825 -0.0819019 -8.1242 0.0 0.0 -0.0 0.0 -0.0 -1.39446 32.1847 -1.18999 -3.75331 -0.136237 -0.559804 13.7579 10.9589 2.03467 -28.4596 0.0 0.0 0.0 0.0 0.0 
2403.38 763.356 -1494.7 9.46629 51.4315 -10.3612 -2.80054 0.515493 2.05178 -2.79828 0.383917 2.08041 -2.78102 -0.164422 2.10912 -2.78719 0.170662 2.10863 -2.39246 21.6992 0.486973 -1.54013 39.0879 3.26332 -0.0 0.0 -0.0 3.05776 17.7296 6.76465 -23.0797 -12.2829 65.0127 0.963356 -25.5109 0.218086 -38.9529 -2.8405 3.98444 1.61812 14.2438 16.1559 -0.0 0.0 -0.0 11.8735 24.6906 -23.234 -8.64171 40.7292 -52.1713 1.8495 42.4913 -0.719122 1.01607 -0.0346905 0.125132 0.00126751 16.9147 7.19208 0.0 0.0 0.0 0.613764 27.8502 -4.59421 -17.8186 0.315225 2.70525 -0.23396 9.7268 0.0342659 -7.8317 0.0 0.0 -0.0 0.0 -0.0 -2.02894 32.1374 -0.890473 -3.5034 -0.128309 -0.522269 14.5932 9.25354 2.13008 -28.3465 0.0 0.0 0.0 0.0 0.0 
2403.21 764.765 -1492.53 9.40983 52.5045 -10.3218 -2.72131 0.40107 1.9941 -2.71914 0.273394 2.01556 -2.70658 -0.251972 2.01835 -2.71226 0.0698829 2.03281 -3.1408 21.897 0.740363 -2.41651 39.4415 3.82687 -0.0 0.0 -0.0 2.93299 17.3603 6.55936 -21.8542 -13.0263 63.8936 0.988146 -26.0812 0.228874 -39.0885 -2.85475 3.99443 1.61094 14.08 16.0538 -0.0 0.0 -0.0 11.9636 24.7512 -23.4337 -8.83886 40.8395 -52.2862 1.64953 39.2501 -0.58822 0.741203 -0.0255253 0.0912218 -0.0201618 15.8969 6.90382 0.0 0.0 0.0 0.537221 28.5461 -4.54333 -16.9906 0.319327 2.57827 0.681366 9.87094 -0.099582 -8.03688 0.0 0.0 -0.0 0.0 -0.0 -2.12294 32.1474 -0.109816 -3.66206 -0.133361 -0.546095 15.2115 7.07961 2.19086 -27.9478 0.0 0.0 0.0 0.0 0.0 
2402.32 764.459 -1492.81 9.91394 53.1733 -10.491 -2.7086 0.271942 1.94163 -2.70651 0.147864 1.95499 -2.69888 -0.357605 1.9277 -2.70406 -0.0487336 1.95997 -3.52827 21.7084 0.495459 -2.87757 39.3704 3.69143 -0.0 0.0 -0.0 2.90977 16.7755 6.50181 -19.7873 -13.5075 62.6337 1.02683 -26.9601 0.246148 -39.0036 -2.84583 3.98818 1.5949 14.2299 15.9997 -0.0 0.0 -0.0 12.0896 24.7634 -23.7206 -9.2564 40.7485 -53.2972 1.49094 36.4461 -0.490887 0.366061 -0.012754 0.0450113 -0.140297 13.3756 6.64271 0.0 0.0 0.0 -1.11521 29.2485 -3.50599 -15.0592 0.32176 2.28198 2.53976 9.91702 -0.369457 -7.82196 0.0 0.0 -0.0 0.0 -0.0 -2.18055 32.1535 0.428628 -3.91137 -0.141165 -0.58356 15.7444 5.06728 2.24325 -27.6328 0.0 0.0 0.0 0.0 0.0 
2399.4 763.251 -1489.69 9.80513 53.6143 -10.624 -2.63696 0.190868 1.90422 -2.63494 0.0693334 1.9125 -2.6303 -0.420437 1.86702 -2.63515 -0.120356 1.90997 -3.7889 21.5966 0.36373 -3.18805 39.3228 3.63728 -0.0 0.0 -0.0 2.82384 16.2161 6.34482 -18.4152 -13.8372 61.628 1.05397 -27.5686 0.258579 -38.9456 -2.83973 3.98391 1.58338 14.3364 15.9605 -0.0 0.0 -0.0 12.0076 24.7835 -23.531 -9.89179 40.5175 -53.4508 1.36921 34.146 -0.420537 0.103499 -0.00363514 0.0127182 -0.230016 11.5136 6.45702 0.0 0.0 0.0 -2.26752 29.7229 -2.78226 -13.6788 0.317379 2.07023 3.84347 9.92908 -0.55715 -7.63701 0.0 0.0 -0.0 0.0 -0.0 -2.3693 32.139 0.865029 -4.32423 -0.153732 -0.645676 16.1382 3.65574 2.28358 -27.4096 0.0 0.0 0.0 0.0 0.0 
2396.21 769.044 -1480.36 9.36314 54.2862 -10.6913 -2.51457 0.170716 1.91768 -2.51253 0.0483666 1.92465 -2.50865 -0.439841 1.87436 -2.51352 -0.138358 1.92028 -3.95992 21.6339 0.740475 -3.40261 39.1493 4.09809 -0.0 0.0 -0.0 2.91868 15.6146 6.47121 -17.181 -14.2055 61.1398 1.12584 -29.1479 0.292722 -38.8388 -2.82852 3.97602 1.55567 14.1199 15.7068 -0.0 0.0 -0.0 11.7762 24.8782 -22.9925 -10.4898 40.2486 -53.2817 1.20544 30.8419 -0.33252 -0.0784232 0.0027698 -0.00963253 -0.315171 9.70298 6.26144 0.0 0.0 0.0 -3.89873 30.0565 -1.5331 -12.4702 0.309355 1.88497 4.62721 9.93663 -0.669294 -7.34899 0.0 0.0 -0.0 0.0 -0.0 -2.48641 32.0752 0.787175 -4.55843 -0.160661 -0.68095 16.4108 2.57889 2.31128 -27.2531 0.0 0.0 0.0 0.0 0.0 
